<?xml version="1.0" encoding="utf-8"?><svg xmlns="http://www.w3.org/2000/svg" xmlns:xlink="http://www.w3.org/1999/xlink"><symbol viewBox="0 0 24 25" id="arrow" xmlns="http://www.w3.org/2000/svg"><path d="M20 11.5H7.83l5.59-5.59L12 4.5l-8 8 8 8 1.41-1.41-5.58-5.59H20v-2z"/></symbol><symbol viewBox="0 0 24 24" id="calendar" xmlns="http://www.w3.org/2000/svg"><path d="M16.75 3.56V2c0-.41-.34-.75-.75-.75s-.75.34-.75.75v1.5h-6.5V2c0-.41-.34-.75-.75-.75s-.75.34-.75.75v1.56c-2.7.25-4.01 1.86-4.21 4.25-.02.29.22.53.5.53h16.92c.29 0 .53-.25.5-.53-.2-2.39-1.51-4-4.21-4.25zM20 9.84H4c-.55 0-1 .45-1 1V17c0 3 1.5 5 5 5h8c3.5 0 5-2 5-5v-6.16c0-.55-.45-1-1-1zM9.21 18.21c-.1.09-.21.16-.33.21-.12.05-.25.08-.38.08s-.26-.03-.38-.08-.23-.12-.33-.21c-.18-.19-.29-.45-.29-.71 0-.26.11-.52.29-.71.1-.09.21-.16.33-.21a1 1 0 01.76 0c.12.05.23.12.33.21.18.19.29.45.29.71 0 .26-.11.52-.29.71zm.21-3.83c-.05.12-.12.23-.21.33-.1.09-.21.16-.33.21-.12.05-.25.08-.38.08s-.26-.03-.38-.08-.23-.12-.33-.21c-.09-.1-.16-.21-.21-.33A.995.995 0 017.5 14c0-.13.03-.26.08-.38s.12-.23.21-.33c.1-.09.21-.16.33-.21a1 1 0 01.76 0c.12.05.23.12.33.21.09.1.16.21.21.33.05.12.08.25.08.38s-.03.26-.08.38zm3.29.33c-.1.09-.21.16-.33.21-.12.05-.25.08-.38.08s-.26-.03-.38-.08-.23-.12-.33-.21c-.18-.19-.29-.45-.29-.71 0-.26.11-.52.29-.71.1-.09.21-.16.33-.21.24-.11.52-.11.76 0 .12.05.23.12.33.21.18.19.29.45.29.71 0 .26-.11.52-.29.71z"/></symbol><symbol viewBox="0 0 122 24" id="logo" xmlns="http://www.w3.org/2000/svg"><path fill-rule="evenodd" clip-rule="evenodd" d="M15.333 7.011A6 6 0 0012 6V0A12 12 0 110 12h6a6 6 0 109.333-4.989z"/><path fill-rule="evenodd" clip-rule="evenodd" d="M6 0a6 6 0 01-6 6v6A12.001 12.001 0 0012 0H6z"/><path d="M75.371 8.671H72.46v9.248h2.911V8.67zM72.784 6.94a1.55 1.55 0 001.141.457c.457 0 .831-.153 1.123-.457.292-.317.438-.698.438-1.142 0-.456-.146-.837-.438-1.141-.292-.305-.666-.457-1.123-.457-.456 0-.837.152-1.14.457-.293.304-.439.685-.439 1.141 0 .444.146.825.438 1.142zm-42.09 10.979V4.485h2.987v10.808h5.956v2.626h-8.943z"/><path fill-rule="evenodd" clip-rule="evenodd" d="M45.016 18.128c-.951 0-1.813-.21-2.587-.628a4.886 4.886 0 01-1.808-1.75c-.444-.736-.666-1.56-.666-2.474 0-.913.222-1.731.666-2.454a4.788 4.788 0 011.808-1.713c.76-.431 1.623-.647 2.587-.647.965 0 1.827.21 2.588.628a4.742 4.742 0 011.808 1.732c.444.723.666 1.54.666 2.454 0 .914-.222 1.738-.666 2.474a4.886 4.886 0 01-1.808 1.75c-.761.419-1.623.628-2.588.628zm0-2.645a2.22 2.22 0 001.104-.266c.317-.19.558-.45.723-.78.178-.343.266-.73.266-1.16 0-.432-.088-.806-.266-1.123a1.865 1.865 0 00-.742-.762c-.304-.19-.666-.285-1.085-.285-.405 0-.767.095-1.084.285a1.866 1.866 0 00-.742.761c-.178.33-.267.71-.267 1.142 0 .419.09.8.267 1.142.177.33.425.59.742.78.317.178.678.266 1.084.266zm7.367 6.051c.774.355 1.668.533 2.683.533.99 0 1.871-.197 2.645-.59a4.57 4.57 0 001.827-1.636c.444-.698.666-1.523.666-2.474V8.671h-2.855v.622a3.077 3.077 0 00-.723-.45c-.494-.241-1.059-.362-1.693-.362-.85 0-1.605.203-2.264.61-.66.392-1.18.938-1.56 1.635-.381.685-.571 1.46-.571 2.322 0 .85.19 1.623.57 2.321a4.36 4.36 0 001.56 1.656c.66.405 1.415.609 2.265.609.621 0 1.186-.121 1.693-.362.246-.117.468-.254.666-.413v.584c0 .647-.209 1.148-.628 1.503-.406.356-.97.533-1.693.533-.583 0-1.085-.101-1.503-.304a3.469 3.469 0 01-1.104-.895l-1.788 1.789c.444.634 1.046 1.123 1.807 1.465zm4.148-6.755c-.291.178-.64.267-1.046.267s-.761-.09-1.066-.267a1.877 1.877 0 01-.685-.723 2.156 2.156 0 01-.247-1.008c0-.38.082-.723.247-1.028.165-.304.4-.545.704-.723a2.038 2.038 0 011.047-.266c.406 0 .755.089 1.046.266.305.178.533.419.685.723.165.305.248.647.248 1.028 0 .38-.083.723-.248 1.027a1.74 1.74 0 01-.685.704zm9.799 3.349c-.951 0-1.814-.21-2.587-.628a4.885 4.885 0 01-1.808-1.75c-.444-.736-.666-1.56-.666-2.474 0-.913.222-1.731.666-2.454a4.786 4.786 0 011.808-1.713c.76-.431 1.623-.647 2.588-.647.963 0 1.826.21 2.587.628a4.741 4.741 0 011.808 1.732c.444.723.666 1.54.666 2.454 0 .914-.222 1.738-.666 2.474a4.885 4.885 0 01-1.808 1.75c-.761.419-1.624.628-2.587.628zm0-2.645c.419 0 .787-.088 1.104-.266.317-.19.558-.45.723-.78.178-.343.266-.73.266-1.16 0-.432-.088-.806-.266-1.123a1.864 1.864 0 00-.742-.762c-.304-.19-.666-.285-1.084-.285-.407 0-.768.095-1.085.285a1.864 1.864 0 00-.742.761c-.178.33-.267.71-.267 1.142 0 .419.089.8.267 1.142.177.33.424.59.742.78a2.18 2.18 0 001.085.266zm16.038 2.627c-.62 0-1.192-.121-1.712-.362a3.633 3.633 0 01-.742-.455v4.527h-2.873V8.67h2.911v.639a3.6 3.6 0 01.704-.448 3.854 3.854 0 011.712-.38c.876 0 1.65.209 2.322.627.685.419 1.218.99 1.598 1.713.394.723.59 1.547.59 2.473 0 .926-.196 1.75-.59 2.474a4.33 4.33 0 01-1.598 1.712c-.672.419-1.446.628-2.322.628zm-.532-2.627c.418 0 .78-.095 1.084-.285.318-.19.565-.45.743-.78a2.33 2.33 0 00.266-1.123 2.38 2.38 0 00-.266-1.142 1.864 1.864 0 00-.743-.76 1.967 1.967 0 00-1.065-.286c-.406 0-.768.095-1.084.285a1.9 1.9 0 00-.723.761c-.178.33-.267.71-.267 1.142 0 .419.082.793.247 1.123.178.33.425.59.743.78.316.19.672.285 1.065.285z"/><path d="M89.728 17.938c.532.14 1.071.21 1.617.21 1.154 0 2.067-.267 2.74-.8.684-.533 1.027-1.25 1.027-2.15 0-.584-.107-1.053-.323-1.408a2.518 2.518 0 00-.837-.875 4.998 4.998 0 00-1.085-.514c-.38-.127-.742-.235-1.084-.324a3.929 3.929 0 01-.838-.304c-.215-.114-.323-.266-.323-.457a.43.43 0 01.247-.4c.165-.1.412-.152.742-.152.343 0 .691.07 1.046.21.368.14.698.38.99.723l1.655-1.674a3.821 3.821 0 00-1.636-1.2 5.51 5.51 0 00-2.169-.418c-.748 0-1.402.127-1.96.38-.558.254-.99.603-1.294 1.047-.304.431-.456.945-.456 1.541 0 .559.108 1.022.323 1.39.215.355.495.634.837.837a4.86 4.86 0 001.085.475c.38.115.742.222 1.085.324.342.089.621.196.837.323.228.114.342.286.342.514 0 .178-.095.317-.285.419-.178.101-.438.152-.78.152-.495 0-.952-.089-1.37-.267-.419-.19-.78-.45-1.085-.78l-1.655 1.675c.317.342.697.647 1.141.913.457.254.945.45 1.466.59zm10.693.19c-.85 0-1.604-.171-2.264-.514a3.973 3.973 0 01-1.522-1.446c-.368-.621-.552-1.332-.552-2.13V8.67h2.911V14c0 .317.05.59.153.818.114.229.279.406.494.533.216.127.476.19.78.19.431 0 .774-.133 1.028-.4.254-.278.38-.659.38-1.14V8.67h2.911v5.347c0 .812-.183 1.529-.552 2.15a3.963 3.963 0 01-1.522 1.446c-.647.343-1.395.514-2.245.514zm8.678-9.457h-2.911v9.248h2.911v-5.404c0-.317.063-.584.19-.8.14-.215.324-.38.552-.494.228-.127.488-.19.78-.19.419 0 .767.133 1.046.4.292.253.438.615.438 1.084v5.404h2.911v-5.404c0-.317.064-.584.191-.8.139-.215.323-.38.552-.494.228-.127.488-.19.78-.19.418 0 .767.133 1.046.4.292.253.437.615.437 1.084v5.404h2.912v-5.727c0-.774-.165-1.434-.495-1.98a3.174 3.174 0 00-1.312-1.274c-.546-.305-1.174-.457-1.884-.457-.723 0-1.377.159-1.96.476a3.545 3.545 0 00-.994.782 3.25 3.25 0 00-.966-.82c-.507-.292-1.085-.438-1.731-.438-.686 0-1.301.146-1.846.438a3.163 3.163 0 00-.647.436v-.684z"/></symbol><symbol viewBox="0 0 24 24" id="map" xmlns="http://www.w3.org/2000/svg"><path d="M7.63 3.57c.18-.098.37.053.37.257v13.556c0 .223-.152.412-.35.516a1.394 1.394 0 00-.02.011l-2.35 1.34c-1.64.94-2.99.16-2.99-1.74V7.78c0-.63.45-1.41 1.01-1.73l4.33-2.48zm7.092 2.532A.5.5 0 0115 6.55v13.154a.5.5 0 01-.717.45l-4.25-2.048a.5.5 0 01-.283-.45V4.446a.5.5 0 01.722-.448l4.25 2.104zM22 6.49v9.73c0 .63-.45 1.41-1.01 1.73l-3.491 2.001a.5.5 0 01-.749-.434V6.33a.5.5 0 01.252-.434L19.01 4.75C20.65 3.81 22 4.59 22 6.49z"/></symbol><symbol fill="#909090" viewBox="0 0 91 28" id="partners--airbnb" xmlns="http://www.w3.org/2000/svg"><g clip-path="url(#ea)"><path d="M47.644 7.035c0 1.01-.813 1.822-1.822 1.822A1.818 1.818 0 0144 7.035a1.8 1.8 0 011.822-1.821c1.037.028 1.822.84 1.822 1.821zm-7.512 3.672v.449s-.868-1.122-2.718-1.122c-3.055 0-5.438 2.326-5.438 5.55 0 3.195 2.355 5.549 5.438 5.549 1.877 0 2.718-1.15 2.718-1.15v.477c0 .224.169.392.393.392h2.27V10.313h-2.27a.403.403 0 00-.393.394zm0 6.754c-.42.617-1.261 1.15-2.27 1.15-1.794 0-3.167-1.121-3.167-3.027 0-1.906 1.373-3.028 3.167-3.028.981 0 1.878.561 2.27 1.15v3.755zm4.344-7.147h2.69v10.539h-2.69V10.314zm40.192-.28c-1.85 0-2.719 1.121-2.719 1.121V5.242h-2.69v15.611h2.27a.4.4 0 00.392-.393v-.476s.87 1.15 2.719 1.15c3.055 0 5.437-2.354 5.437-5.55 0-3.195-2.382-5.55-5.409-5.55zm-.448 8.548c-1.038 0-1.85-.532-2.27-1.149v-3.755c.42-.561 1.317-1.15 2.27-1.15 1.793 0 3.167 1.121 3.167 3.027 0 1.906-1.373 3.027-3.167 3.027zm-6.362-3.98v6.279h-2.691v-5.97c0-1.737-.56-2.438-2.073-2.438-.813 0-1.654.42-2.188 1.037v7.343h-2.69V10.314h2.13c.224 0 .392.197.392.393v.449c.785-.814 1.822-1.122 2.859-1.122 1.177 0 2.159.337 2.943 1.01.953.784 1.318 1.793 1.318 3.559zm-16.173-4.568c-1.85 0-2.718 1.121-2.718 1.121V5.242h-2.69v15.611h2.27a.401.401 0 00.392-.393v-.476s.869 1.15 2.718 1.15c3.056 0 5.438-2.354 5.438-5.55.028-3.195-2.355-5.55-5.41-5.55zm-.448 8.548c-1.037 0-1.85-.532-2.27-1.149v-3.755c.42-.561 1.317-1.15 2.27-1.15 1.794 0 3.167 1.121 3.167 3.027 0 1.906-1.373 3.027-3.167 3.027zm-7.287-8.548c.812 0 1.233.14 1.233.14v2.494s-2.242-.756-3.643.841v7.372h-2.691V10.314h2.27a.4.4 0 01.392.393v.448c.505-.588 1.598-1.121 2.439-1.121zM26.007 19.9c-.14-.336-.28-.7-.42-1.01-.225-.503-.45-.98-.645-1.429l-.028-.028a292.266 292.266 0 00-6.195-12.668l-.084-.168c-.23-.436-.454-.876-.672-1.318-.28-.504-.56-1.036-1.009-1.541C16.057.617 14.768 0 13.394 0c-1.4 0-2.662.617-3.586 1.681-.421.505-.73 1.037-1.01 1.542-.218.442-.442.881-.672 1.317l-.084.169c-2.158 4.204-4.26 8.464-6.194 12.668l-.028.056c-.196.449-.421.925-.645 1.43-.14.308-.28.644-.42 1.008C.39 20.908.278 21.89.418 22.9a5.957 5.957 0 003.644 4.652 5.753 5.753 0 002.27.449 7.404 7.404 0 003.532-1.009c1.15-.645 2.242-1.57 3.475-2.915 1.233 1.346 2.355 2.27 3.476 2.915A7.406 7.406 0 0020.346 28c.785 0 1.57-.14 2.27-.449 1.963-.785 3.336-2.578 3.644-4.652.223-.981.11-1.962-.253-3zm-12.64 1.457c-1.514-1.906-2.495-3.7-2.831-5.212-.14-.645-.168-1.206-.084-1.71.056-.449.224-.841.448-1.178.533-.756 1.43-1.233 2.467-1.233 1.037 0 1.962.449 2.467 1.233.224.337.392.73.448 1.178.084.505.056 1.093-.084 1.71-.337 1.485-1.318 3.279-2.832 5.212zm11.182 1.318a4.165 4.165 0 01-2.55 3.28 4.245 4.245 0 01-2.13.28 5.52 5.52 0 01-2.13-.73c-1.01-.56-2.018-1.429-3.195-2.718 1.85-2.27 2.97-4.345 3.39-6.194a7.01 7.01 0 00.14-2.383 4.543 4.543 0 00-.756-1.906c-.869-1.261-2.327-1.99-3.952-1.99s-3.082.757-3.951 1.99a4.548 4.548 0 00-.757 1.906 5.822 5.822 0 00.14 2.383c.42 1.85 1.57 3.951 3.39 6.222-1.148 1.289-2.185 2.158-3.194 2.719-.73.42-1.43.645-2.13.728a4.484 4.484 0 01-2.13-.28 4.165 4.165 0 01-2.55-3.28 4.637 4.637 0 01.252-2.185c.084-.28.224-.56.364-.897a54.2 54.2 0 01.645-1.402l.028-.055A305.603 305.603 0 019.639 5.578l.084-.168c.224-.42.448-.869.672-1.29.225-.448.477-.869.785-1.233.589-.672 1.373-1.037 2.242-1.037.87 0 1.654.365 2.243 1.037a6.2 6.2 0 01.785 1.233c.224.421.448.87.672 1.29l.084.168a371.146 371.146 0 016.138 12.612v.028c.225.45.421.954.645 1.403.14.335.28.615.364.896.224.728.308 1.43.196 2.158z"/></g><defs><clipPath id="ea"><path fill="#fff" transform="translate(.347)" d="M0 0h89.744v28H0z"/></clipPath></defs></symbol><symbol fill="#909090" viewBox="0 0 154 40" id="partners--american-airlines" xmlns="http://www.w3.org/2000/svg"><path d="M76.827 17.982h-.054l-1.605 4.534h3.247l-1.588-4.534zm2.876 8.112l-.791-2.23h-4.196l-.787 2.23H72.13l3.767-9.919h2l3.707 9.92h-1.9zm15.222-10.321h1.753v1.66h-1.753v-1.66zm0 2.762h1.713v7.56H94.92l.005-7.56zm-12.663-2.762h1.758v1.66h-1.758v-1.66zm0 2.762h1.717v7.56h-1.717v-7.56zm10.77-2.75H91.32v10.31h1.713v-10.31zm-5.46 6.625v3.684h-1.727v-5.613c0-.542-.058-1.571-.08-1.94h1.386c.147 0 .197.061.197.206v.94h.053c.134-.33.622-1.309 2.044-1.309.479 0 .832.157.89.18 0 .324-.053 1.04-.053 1.23 0 .122-.067.162-.125.162-.063 0-.09 0-.117-.056-.107-.056-.358-.118-.706-.118-.917 0-1.772.66-1.772 2.606m15.616 3.685v-4.882c0-.933-.425-1.498-1.217-1.498-1.056 0-1.753 1.124-1.753 2.633v3.747H98.49v-5.553c0-.609-.058-1.503-.085-2.001h1.378c.156 0 .2.061.2.2v.946h.055c.205-.358.733-1.308 2.317-1.308 1.623 0 2.536 1.112 2.536 2.365v5.35h-1.713zm4.75-4.558h3.176c.067-1.218-.577-1.9-1.539-1.9-1.011 0-1.592.732-1.637 1.9zm4.231 2.897c.094 0 .126.084.13.168.054.324.063 1.05.054 1.235-.184.062-1.105.403-2.34.403-2.411 0-3.855-1.247-3.855-3.925 0-2.298 1.23-3.936 3.448-3.936 2.179 0 3.216 1.459 3.216 3.265 0 .212 0 .57-.058 1.051h-4.848c0 1.286.827 2.214 2.343 2.214.837 0 1.503-.302 1.767-.43.054 0 .081-.056.143-.056m4.022 1.806c2.232 0 3.296-.917 3.296-2.27 0-1.337-.948-1.901-1.954-2.231-.287-.095-.573-.19-.832-.28-.689-.224-1.047-.526-1.047-.973 0-.47.429-.8 1.324-.8.796 0 1.445.325 1.7.448.058 0 .076.056.143.056.058 0 .125-.056.138-.162 0-.258.054-.716.054-1.158-.21-.095-.962-.48-2.169-.48-1.843 0-2.979.961-2.979 2.225 0 1.23.841 1.79 1.767 2.096.21.073.603.202.836.28.962.319 1.235.61 1.235 1.062 0 .588-.627.878-1.705.878-.881 0-1.489-.324-1.731-.441-.058 0-.08-.056-.152-.056-.121 0-.13.167-.13.195 0 .084-.053.867-.053 1.124.201.09 1.078.487 2.25.487m-101.09-8.259h-.054l-1.61 4.535h3.242l-1.579-4.535zm2.876 8.113l-.788-2.23h-4.204l-.783 2.23h-1.798l3.766-9.924h1.995l3.708 9.924h-1.896zM45.98 15.734h1.753v1.66H45.98v-1.66zm0 2.762h1.72v7.598h-1.72v-7.598zm-3.68 3.875v3.684h-1.713v-5.613c0-.543-.063-1.572-.085-1.946h1.382c.147 0 .197.067.197.213v.939h.053c.135-.33.622-1.308 2.044-1.308.48 0 .837.156.89.178 0 .325-.053 1.04-.053 1.23 0 .123-.067.162-.13.162-.062 0-.09 0-.116-.055-.112-.056-.358-.123-.707-.123-.912 0-1.771.665-1.771 2.61m-12.672 3.685v-4.836c0-.872-.363-1.543-1.253-1.543-.997 0-1.579 1.09-1.579 2.628v3.751h-1.713v-4.853c0-.788-.33-1.526-1.252-1.526-1.011 0-1.584 1.09-1.584 2.684v3.695h-1.713V20.52c0-.71-.063-1.71-.085-2.052h1.369c.156 0 .206.056.215.212v.94h.053c.108-.218.671-1.309 2.25-1.309a2.264 2.264 0 012.16 1.376 2.501 2.501 0 012.269-1.376c1.534 0 2.585.828 2.585 2.483v5.233h-1.722zm4.75-4.556h3.176c.067-1.22-.573-1.901-1.539-1.901-1.01 0-1.588.732-1.637 1.9zm4.232 2.896c.093 0 .12.084.13.168.053.324.057 1.05.053 1.235-.183.062-1.105.403-2.344.403-2.406 0-3.851-1.247-3.851-3.925 0-2.298 1.23-3.937 3.453-3.937 2.174 0 3.212 1.46 3.212 3.266 0 .212 0 .57-.063 1.045h-4.84c0 1.292.823 2.22 2.335 2.22.841 0 1.508-.302 1.776-.43.054 0 .076-.056.143-.056m21.51-2.176h-.29c-2.152 0-2.576.75-2.576 1.51 0 .621.407 1.214 1.212 1.214 1.073 0 1.655-1.035 1.655-2.12v-.604zm.417 3.836c-.139 0-.255-.056-.273-.246 0-.246-.054-.727-.054-.727-.103.14-.729 1.119-2.299 1.119-1.503 0-2.366-1.163-2.366-2.432 0-1.767 1.713-2.65 4.258-2.65h.336v-.28c0-.789-.568-1.214-1.615-1.214-.948 0-1.736.33-2.04.487 0 0-.076.056-.125.056-.085 0-.13-.056-.134-.14 0-.285-.058-.833-.058-1.18.313-.117 1.337-.498 2.464-.498 2.25 0 3.212 1.04 3.212 2.706v2.947c0 1.074.098 1.778.139 2.063l-1.445-.01zm-5.927-1.66c.054 0 .112 0 .12.162.054.357.054.95.054 1.135-.34.168-1.082.509-1.995.509-2.285 0-3.69-1.331-3.69-3.931 0-2.432 1.248-3.93 3.69-3.93.815 0 1.562.285 1.995.508 0 .268-.053.878-.053 1.135 0 .106-.058.157-.12.157-.073 0-.095 0-.14-.056-.545-.269-1.064-.403-1.534-.403-1.454 0-2.057.956-2.057 2.567 0 1.436.478 2.56 2.057 2.56.604 0 1.15-.212 1.49-.374.098-.056.107-.062.183-.062m13.406 1.66v-4.88c0-.934-.425-1.499-1.217-1.499-1.06 0-1.762 1.119-1.762 2.634v3.746h-1.713v-5.552c0-.61-.054-1.505-.081-2.008h1.373c.157 0 .201.067.201.207v.945h.059c.205-.358.738-1.308 2.312-1.308 1.633 0 2.545 1.113 2.545 2.365v5.35h-1.717zm75.424 3.25l.21.732.206-.733h.174l.134.918h-.134l-.103-.75-.21.75h-.152l-.206-.744-.094.744h-.129l.134-.918h.17zm-.43 0v.117h-.272v.8h-.135v-.8h-.268v-.117h.675zM120.949 9.84l4.245 6.95c.608.922 1.1 1.185 2.666 1.185h3.824c-3.534-4.411-5.206-6.67-5.752-7.173-.488-.476-.975-.962-2.165-.962h-2.818zm11.782 8.499c-1.745 0-3.44.173-4.285.575-.72.386-.913.626-.913 1.068 0 .403.076.744.327 1.141l2.098 3.466s-.148-.408-.148-.872c0-2.197 2.393-3.645 5.385-3.645.94 0 1.342.162 1.342.162-.29-.984-.97-1.895-3.806-1.895zm1.109 2.303c-.859.162-1.619.475-2.187.928-.863.677-1.342 1.633-1.248 2.986 0 .134.062.514.13.822.053.123.053.128.053.223l1.7 2.83c.72 1.157 1.91 1.688 3.4 1.688h5.993l-7.022-8.515-.819-.962z"/></symbol><symbol fill="#909090" viewBox="0 0 142 40" id="partners--expedia" xmlns="http://www.w3.org/2000/svg"><g clip-path="url(#ga)"><path d="M67.982 31.29H63.59c-.028 0-.028 0-.042-.014l-3.78-4.613-3.779 4.613c-.014.014-.028.014-.041.014h-3.516c-.028 0-.042-.014-.056-.028 0-.014 0-.042.014-.056l5.572-6.836-5.502-6.767c-.014-.027-.014-.041-.014-.07.014-.013.028-.027.042-.027h4.39c.014 0 .028.014.042.028l3.321 4.113 3.377-4.113c.013-.014.027-.028.041-.028h3.571c.014 0 .042.014.056.028.014.028 0 .042-.014.07l-5.21 6.266 5.974 7.336c.014.014.014.042.014.056-.028.028-.042.028-.07.028zm23.746-11.366c-1.945 0-3.265 1.18-3.654 3.223h6.614v-.139c0-1.625-1.209-3.084-2.96-3.084zm6.364 5.335c-.014.014-.028.028-.041.028H88.004c.209 2.335 1.723 3.669 4.183 3.669 1.514 0 3.126-.515 5.391-1.723.042-.028.083.013.083.055v3.085c0 .028-.014.041-.027.041-2.112.89-4.238 1.501-5.906 1.501-4.321 0-7.461-3.154-7.461-7.49 0-4.335 3.14-7.489 7.461-7.489 3.946 0 6.475 2.654 6.475 6.309 0 .597-.097 1.973-.11 2.014zm20.398-10.615c-1.237 0-2.237-.987-2.237-2.196 0-1.25 1-2.265 2.237-2.265s2.237 1.015 2.237 2.265c0 1.209-1 2.196-2.237 2.196zm-1.806 16.646c-.042 0-.056-.014-.056-.056V17.548c0-.028.014-.056.042-.056h3.626c.028 0 .042.028.042.056v13.686c0 .042-.028.056-.056.056h-3.598zm-42.061-2.057c-.653 0-1.32-.097-2.098-.291l.014-8.782c.903-.292 1.681-.417 2.46-.417 2.514 0 4.196 1.848 4.196 4.613 0 2.96-1.793 4.877-4.572 4.877zm.987-12.297c-1.028 0-2.057.18-3.14.556h-3.613a.06.06 0 00-.056.056v22.44a8.507 8.507 0 003.724-1.459v-6.822c.89.125 1.626.208 2.334.208 4.947 0 8.143-2.96 8.143-7.545 0-4.377-3.043-7.434-7.392-7.434zm34.473 11.158c-1.125.598-2.14.875-3.084.875-2.237 0-3.585-1.584-3.585-4.238 0-3.057 1.709-5.044 4.363-5.044.736 0 1.445.181 2.306.57v7.837zm0-17.841v7.156c-1.056-.306-1.987-.445-2.932-.445-4.307 0-7.545 3.238-7.545 7.545 0 4.28 2.863 7.392 6.809 7.392 1.362 0 2.64-.347 4.141-1.111v1.236a8.255 8.255 0 003.251-1.39V8.78a8.217 8.217 0 00-3.724 1.473zm22.83 17.813c-1.098.626-2.029.931-2.862.931-2.404 0-3.836-1.584-3.836-4.238 0-3.015 1.696-5.044 4.211-5.044.667 0 1.486.264 2.487.792v7.56zm3.724-10.74a.155.155 0 00-.153-.154h-2.932c-.083 0-.167.07-.167.153v.5h-.069c-1.348-.597-2.515-.86-3.641-.86-4.057 0-7.239 3.362-7.239 7.67 0 4.348 2.849 7.266 7.086 7.266 1.126 0 2.585-.083 3.947-1.64v1.765c.958-.208 2.098-.611 3.168-1.39v-13.31zM42.4 27.872h9.102a8.365 8.365 0 01-1.264 3.418h-9.463c-1.153 0-2.112-.903-2.223-2.029 0-.014-.014-.028-.014-.055V11.253c0-.014.014-.028.014-.042.111-1.139 1.07-2.042 2.223-2.042h10.713a8.313 8.313 0 01-1.278 3.446H42.4v4.891h7.74c.028 0 .056.028.056.055v3.39a.06.06 0 01-.056.056H42.4v6.865zm-11.393 3.71c-.903 0-1.459-.709-1.459-1.57 0-.918.64-1.57 1.459-1.57.806 0 1.445.639 1.445 1.57 0 .93-.64 1.57-1.445 1.57zm0-3.307c-.917 0-1.71.694-1.71 1.737 0 .986.71 1.736 1.71 1.736.903 0 1.695-.694 1.695-1.736 0-1.043-.778-1.737-1.695-1.737z"/><path d="M30.604 29.872v-.639h.43c.223 0 .473.028.473.292 0 .32-.236.334-.5.334-.014.013-.403.013-.403.013zm1.209-.305c0-.417-.25-.598-.75-.598h-.779v2.057h.334v-.876h.32l.527.876h.39l-.57-.903c.305-.028.528-.181.528-.556zm107.825-9.797c-.903 0-1.459-.708-1.459-1.57 0-.916.639-1.57 1.459-1.57.806 0 1.445.64 1.445 1.57 0 .932-.639 1.57-1.445 1.57zm0-3.292c-.917 0-1.709.694-1.709 1.737 0 .986.709 1.736 1.709 1.736.903 0 1.695-.694 1.695-1.736 0-1.056-.792-1.737-1.695-1.737z"/><path d="M139.221 18.062v-.626h.431c.222 0 .472.028.472.292 0 .32-.236.334-.5.334h-.403zm1.223-.292c0-.417-.25-.598-.75-.598h-.778v2.057h.333v-.875h.32l.528.875h.389l-.57-.903c.292-.028.528-.18.528-.556zM19.266 12.601l-.653-1.862-5.614-7.49 1-.25 9.658 8.351 5.683-1.625c.666-.167 1.43-.209 2-.209A16.308 16.308 0 0021.975.971C13.458-2.072 4.078 2.388 1.05 10.92a16.313 16.313 0 00-.764 7.948l13.603-4.725 5.378-1.542zm12.686-1.611c-.5.319-1.237.75-1.96.986L24.295 13.6l-3.793 12.2-.986.32.806-9.31-.445-1.931-5.336 1.528L.424 19.701c1.125 5.42 4.96 10.158 10.56 12.145 8.532 3.043 17.897-1.418 20.94-9.95a16.324 16.324 0 00.028-10.907z"/><path d="M19.863 14.866l.445 1.931-.806 9.31.986-.32 3.794-12.2 5.697-1.625c.722-.236 1.459-.653 1.959-.987-.18-.5-.375-.986-.598-1.473-.583 0-1.334.028-2 .209l-5.684 1.626L14 2.986l-1 .25 5.6 7.49.653 1.861-5.378 1.543L.271 18.854c.042.278.097.57.153.847l14.103-3.32 5.336-1.515z"/></g><defs><clipPath id="ga"><path fill="#fff" transform="translate(.09)" d="M0 0h141.243v40H0z"/></clipPath></defs></symbol><symbol fill="#909090" viewBox="0 0 156 28" id="partners--skyscanner" xmlns="http://www.w3.org/2000/svg"><g clip-path="url(#ha)"><path d="M17.409 22.964c.358 0 .699-.085 1.023-.273l3.736-2.15a4.077 4.077 0 012.49-.51c4.538.528 7.71 1.38 8.649 1.654a.517.517 0 00.529-.17c.153-.188.34-.495.494-.939.137-.427.154-.785.137-1.04a.492.492 0 00-.359-.444c-1.467-.427-7.966-2.183-16.7-2.183-8.733 0-15.232 1.757-16.7 2.183a.492.492 0 00-.357.444c-.017.238 0 .596.136 1.04.137.444.341.75.495.938.12.154.341.222.529.17.938-.272 4.128-1.125 8.648-1.654.87-.102 1.74.085 2.49.512l3.736 2.15c.324.187.682.272 1.024.272zM11.183 10.87a1.477 1.477 0 002.03.546 1.477 1.477 0 00.545-2.03l-3.36-5.817c-.102-.187-.324-.256-.529-.239-.273.017-.648.154-1.092.41-.443.256-.75.511-.904.733a.55.55 0 00-.051.58l3.36 5.817zm-3.07 4.162a1.55 1.55 0 001.125.154c.375-.103.7-.341.904-.7a1.55 1.55 0 00.154-1.126 1.463 1.463 0 00-.7-.904L3.78 9.096a.55.55 0 00-.58.051c-.221.154-.477.46-.733.904s-.392.819-.41 1.092c-.017.222.069.426.24.529l5.816 3.36zm10.78-6.226c0 .41-.17.785-.427 1.058a1.453 1.453 0 01-1.057.426c-.41 0-.785-.17-1.058-.426a1.453 1.453 0 01-.426-1.058V2.102c0-.222.136-.392.34-.477.24-.12.632-.188 1.144-.188.512 0 .904.068 1.143.188.187.102.34.255.34.477v6.704zm4.742 2.064a1.477 1.477 0 01-2.03.546 1.477 1.477 0 01-.546-2.03l3.36-5.817c.103-.187.325-.256.53-.239.272.017.647.154 1.091.41.444.256.75.511.904.733a.55.55 0 01.051.58l-3.36 5.817zm3.07 4.162a1.55 1.55 0 01-1.125.154 1.477 1.477 0 01-.905-.7 1.55 1.55 0 01-.153-1.126c.102-.375.341-.699.7-.904l5.816-3.36a.55.55 0 01.58.051c.222.154.478.46.733.904.256.444.393.819.41 1.092.017.222-.068.426-.239.529l-5.817 3.36zm37.101-4.622h2.798c.102 0 .188.068.239.153l2.78 7.13 2.695-7.13c.035-.102.137-.154.24-.154h2.746c.187 0 .307.188.221.342L68.702 26.41a.263.263 0 01-.222.153h-2.422c-.17 0-.307-.187-.222-.34l2.337-5.476-4.571-9.996c-.103-.154.017-.341.204-.341zm41.298 1.586v-1.33c0-.137.119-.257.256-.257h2.473c.137 0 .256.12.256.256v10.627a.262.262 0 01-.256.256h-2.473a.262.262 0 01-.256-.256v-1.398c-.529.818-1.689 1.893-3.582 1.893-3.617 0-5.493-2.763-5.493-5.85 0-4.026 2.797-5.75 5.407-5.75 1.723-.016 2.917.802 3.668 1.809zm-6.09 3.957c0 1.91 1.177 3.378 3.071 3.378 1.893 0 3.104-1.28 3.104-3.241 0-1.962-1.177-3.463-3.19-3.463-1.893 0-2.985 1.467-2.985 3.326zm11.31 5.34V10.665c0-.136.119-.256.255-.256h2.474c.136 0 .256.12.256.256v1.45c.58-1.006 1.671-1.927 3.531-1.927 1.91 0 4.042.938 4.042 5.253v5.851a.262.262 0 01-.255.256h-2.474a.263.263 0 01-.256-.256v-5.8c0-1.04-.255-2.831-2.098-2.831-1.842 0-2.49 1.62-2.49 3.122v5.51c0 .136-.12.255-.256.255h-2.474c-.153-.017-.255-.12-.255-.256zm12.674 0V10.665c0-.136.119-.256.256-.256h2.473c.136 0 .256.12.256.256v1.45c.58-1.006 1.672-1.927 3.531-1.927 1.91 0 4.043.938 4.043 5.253v5.851c0 .137-.12.256-.256.256h-2.474a.263.263 0 01-.256-.256v-5.8c0-1.04-.255-2.831-2.098-2.831-1.842 0-2.49 1.62-2.49 3.122v5.51c0 .136-.12.255-.256.255h-2.474c-.136-.017-.255-.12-.255-.255zm25.979-10.883h2.405c.137 0 .256.119.256.255v2.2c.478-2.183 2.354-2.933 3.719-2.609.119.017.187.12.187.239v2.422c0 .153-.136.273-.307.239-2.524-.495-3.548.87-3.548 2.78v5.357a.262.262 0 01-.256.255h-2.473a.262.262 0 01-.256-.255V10.665c.017-.136.137-.255.273-.255zM47.414 12.832c-.768-.256-1.177-.41-1.791-.614-.631-.222-1.706-.836-1.706-1.826 0-.989.682-1.62 2.064-1.62 1.262 0 1.962.614 2.422 1.603a.26.26 0 00.358.12l2.03-1.177c.103-.068.154-.205.103-.324-.614-1.348-2.047-2.968-4.879-2.968-3.156 0-5.135 1.876-5.135 4.35 0 2.456 1.621 3.735 3.822 4.486.801.272 1.125.392 1.808.614 1.296.443 1.893 1.023 1.893 1.825s-.512 1.757-2.524 1.757c-1.843 0-2.491-.972-2.866-1.894a.245.245 0 00-.358-.119l-2.133 1.228c-.102.069-.153.188-.102.307.819 2.013 3.053 3.207 5.56 3.207 2.952 0 5.442-1.5 5.442-4.537s-3.24-4.162-4.008-4.418zm16.29 5.8c-.068-.12-.239-.171-.358-.086-.955.7-2.081.717-2.934-.597a571.182 571.182 0 01-1.586-2.473l3.752-4.657a.249.249 0 00-.187-.41h-2.934a.243.243 0 00-.205.103l-3.241 4.452V6.009a.262.262 0 00-.256-.256h-2.473a.262.262 0 00-.256.256v15.284c0 .136.12.255.256.255h2.49c.137 0 .256-.12.256-.255v-4.965s1.655 2.61 2.286 3.583c.853 1.33 2.047 1.876 3.343 1.876 1.228 0 2.013-.324 2.951-1.245a.26.26 0 00.051-.307l-.955-1.604zm17.757-3.515l-1.654-.614c-.597-.221-1.126-.546-1.126-1.023 0-.478.444-1.007 1.348-1.007.784 0 1.262.307 1.535.853a.24.24 0 00.34.103l1.74-1.007a.248.248 0 00.086-.34c-.477-.837-1.416-1.894-3.684-1.894-2.78 0-4.214 1.603-4.214 3.377 0 1.774 1.45 2.61 2.78 3.139 1.502.614 1.604.648 1.792.716.46.188 1.023.478 1.023 1.007 0 .529-.614 1.006-1.552 1.006-.87 0-1.86-.358-2.269-1.364a.245.245 0 00-.358-.12l-1.757 1.007c-.102.068-.153.187-.102.307.512 1.33 2.03 2.507 4.486 2.507 2.661 0 4.435-1.416 4.435-3.412 0-1.995-1.365-2.695-2.849-3.24zm9.996-2.285c1.11 0 1.928.34 2.696.887.12.085.29.05.358-.069l1.023-1.774a.229.229 0 00-.085-.324c-1.058-.716-2.371-1.381-4.145-1.381-1.757 0-3.378.477-4.538 1.654-1.16 1.16-1.688 2.542-1.688 4.18 0 1.978.819 3.24 1.706 4.128.887.887 2.49 1.637 4.537 1.637 1.842 0 3.207-.767 4.145-1.382a.243.243 0 00.068-.324l-1.006-1.757c-.068-.12-.239-.17-.358-.085-.666.478-1.62.887-2.695.887-1.212 0-3.412-.682-3.412-3.139 0-2.456 2.183-3.138 3.394-3.138zm50.185 6.482c-.989 0-1.927-.239-2.61-.785-.682-.546-1.006-1.109-1.006-1.774h8.836c.136 0 .256-.12.256-.256-.051-2.627-.904-3.855-1.723-4.69-.853-.854-2.303-1.638-4.214-1.638-1.91 0-3.377.7-4.383 1.689-.99.989-1.74 2.251-1.74 4.162 0 1.91.767 3.172 1.706 4.11.938.939 2.473 1.638 4.673 1.638 2.081 0 3.838-.733 5.101-2.183.102-.12.068-.307-.068-.375l-1.757-1.024a.235.235 0 00-.29.034c-.87.819-1.979 1.092-2.781 1.092zm-.478-6.755c1.416 0 2.713.853 2.917 2.388h-5.953c.392-1.655 1.621-2.388 3.036-2.388z"/></g><defs><clipPath id="ha"><path fill="#fff" transform="translate(.333)" d="M0 0h155.211v28H0z"/></clipPath></defs></symbol><symbol fill="#909090" viewBox="0 0 127 28" id="partners--traveloka" xmlns="http://www.w3.org/2000/svg"><g clip-path="url(#ia)"><mask id="ia" style="mask-type:luminance" maskUnits="userSpaceOnUse" x="0" y="7" width="109" height="22"><path d="M.351 7.85H108.17V28H.351V7.85z"/></mask><g mask="url(#ia)"><path d="M101.154 21.28c1.261-.373 2.806-.39 3.821-.39h.302v.138c0 1.15-.4 2.382-1.133 3.274-.611.74-1.458 1.243-2.502 1.243-.806 0-1.417-.234-1.838-.591a1.951 1.951 0 01-.706-1.486c0-1.215.917-1.853 2.056-2.188zm-3.426 5.483c.954.82 2.276 1.238 3.592 1.238a5.327 5.327 0 002.957-.89 5.53 5.53 0 001.079-.937v1.507h2.677v-9.015c0-1.793-.49-3.181-1.423-4.135-.942-.962-2.312-1.459-4.062-1.459a9.31 9.31 0 00-2.778.441c-.893.284-1.693.694-2.274 1.184l-.305.259.205.342.828 1.381.264.44.415-.303a6.328 6.328 0 011.706-.878 5.796 5.796 0 011.831-.303c.886 0 1.643.207 2.138.723.425.444.681 1.138.698 2.154h-.328c-1.314 0-3.41.07-5.2.709-1.892.674-3.433 1.962-3.433 4.407 0 1.35.558 2.4 1.413 3.135zm-11.023.918H84.42V8.085h2.757v10.401h1.46l3.858-4.913.142-.181h3.399l-.617.767-4.468 5.562 4.969 7.221.508.74h-3.332l-.14-.21-4.314-6.45h-1.465v6.66h-.472zm-15.66-10.649c-.844.862-1.365 2.064-1.365 3.438 0 1.421.517 2.65 1.357 3.522a4.635 4.635 0 003.372 1.419 4.68 4.68 0 003.39-1.422c.844-.875 1.366-2.1 1.366-3.52 0-1.37-.525-2.572-1.374-3.433a4.717 4.717 0 00-3.382-1.401c-1.32 0-2.51.526-3.364 1.397zm-2 8.785c-1.347-1.346-2.175-3.216-2.175-5.347 0-2.095.83-3.933 2.178-5.254 1.366-1.338 3.26-2.143 5.361-2.143 2.103 0 4.005.806 5.377 2.144 1.354 1.323 2.19 3.16 2.19 5.253 0 2.13-.835 3.998-2.185 5.344-1.372 1.365-3.278 2.187-5.382 2.187-2.103 0-3.999-.82-5.364-2.184zm-6.492 1.345c-.748-.531-1.337-1.467-1.337-3.11V8.085h2.758v15.568c0 .73.146 1.125.355 1.329.182.175.445.217.692.217l.174-.001c.055-.003.116-.008.178-.018l.547-.09v2.572l-.396.064a4.45 4.45 0 01-.742.061c-.615 0-1.488-.1-2.228-.625zm-12.69-10.646c-.587.528-1.039 1.26-1.28 2.182h7.342c-.113-.959-.45-1.695-.932-2.216-.605-.656-1.452-.98-2.375-.98-1.042 0-2.012.348-2.755 1.014zm-2.178 9.364c-1.326-1.315-2.125-3.162-2.125-5.33 0-2.244.753-4.061 1.97-5.346 1.306-1.378 3.139-2.132 5.141-2.132 1.904 0 3.373.7 4.393 1.82 1.116 1.229 1.681 2.952 1.681 4.808 0 .147-.008.311-.018.48l-.038.465-.04.43H48.421c.123 1.27.604 2.28 1.316 3.001.861.875 2.07 1.335 3.388 1.335.67 0 1.351-.14 1.992-.388a5.865 5.865 0 001.773-1.082l.425-.381.293.489 1.026 1.71-.285.26c-.668.607-1.517 1.102-2.43 1.444A8.271 8.271 0 0153.07 28c-2.144.002-4.035-.78-5.386-2.119zm-8.322 1.801H37.07l-.118-.302-5.174-13.346-.25-.641h2.96l.116.305 3.707 9.792.001.005c.018.047.034.096.052.146.016-.05.034-.1.051-.146l.002-.005 3.707-9.792.116-.305h2.93l-.245.64-5.12 13.346-.118.303h-.323zm-16.01-6.401c-1.14.335-2.055.973-2.055 2.188 0 .539.237 1.09.705 1.486.42.355 1.032.59 1.837.59 1.045 0 1.893-.501 2.503-1.242.734-.892 1.132-2.123 1.132-3.274v-.139h-.301c-1.014 0-2.56.018-3.822.39zm-3.425 5.483c-.855-.736-1.413-1.785-1.413-3.135 0-2.445 1.54-3.733 3.433-4.407 1.79-.64 3.886-.709 5.2-.709h.327c-.016-1.016-.272-1.71-.698-2.154-.496-.516-1.251-.723-2.137-.723a5.79 5.79 0 00-1.831.303 6.304 6.304 0 00-1.706.878l-.416.304-.263-.443-.828-1.38-.205-.341.305-.258c.58-.493 1.381-.9 2.273-1.187a9.358 9.358 0 012.778-.438c1.75 0 3.12.495 4.061 1.458.935.954 1.425 2.342 1.425 4.135v9.015h-2.677v-1.507a5.58 5.58 0 01-1.08.938 5.333 5.333 0 01-2.956.887c-1.317.002-2.638-.416-3.592-1.236zm-7.344.918H10.3V13.392h2.73v1.935c.265-.365.566-.694.898-.978.794-.676 1.765-1.09 2.872-1.09a3.675 3.675 0 01.833.094l.36.09v2.797l-.62-.205a5.063 5.063 0 00-.52-.029c-1.165 0-2.031.584-2.635 1.438h-.001c-.799 1.13-1.159 2.72-1.159 4.113v6.124h-.473zm-8.502-.787c-1.093-.762-1.97-2.124-1.97-4.54v-6.401H.352v-2.456h1.785V9.703h2.73v3.794h3.39v2.456h-3.39v6.214c0 1.123.277 1.837.664 2.287.558.647 1.376.771 1.907.771.09 0 .183 0 .255-.005h.002c.08-.005.165-.016.255-.035l.573-.126v2.603l-.396.064c-.103.018-.24.034-.401.046-.138.01-.29.016-.449.016-.838 0-2.112-.14-3.195-.894z"/></g><path d="M118.477 14.786l.048-.029c-.719-2.15 2.273-5.782 7.822-11.857-4.486.55-7.957 1.69-10.411 3.416.238 3.521 1.086 6.345 2.541 8.47z"/><path d="M118.477 14.786l.048-.029a2.068 2.068 0 01-.059-.222c-.701-2.663-.985-5.739-.852-9.227a14.33 14.33 0 00-1.678 1.008c.238 3.521 1.086 6.345 2.541 8.47z"/><path d="M120.325 17.868c1.184.607 2.167.92 3.037.77-5.848-2.293-8.275-8.506-7.281-18.64-2.101.414-3.805 1.374-4.993 2.975-1.034 1.395-.702 3.167.145 5.534.115.317.25 2.027-.456 2.663-.262.232-.68.048-1.041-.187-1.243-.707-2.277-.7-3.1.02-2.269-.382-3.912-.588-4.93-.624 1.452.457 3.131.928 5.014 1.477.805.234 1.494.787 2.038 1.623 1.113 1.71 4.268 2.639 7.323 3.08 1.145.164 2.732.535 4.244 1.31z"/></g><defs><clipPath id="ia"><path fill="#fff" transform="translate(.351)" d="M0 0h125.996v28H0z"/></clipPath></defs></symbol><symbol viewBox="0 0 237 274" id="pointer" xmlns="http://www.w3.org/2000/svg"><path d="M233.333 89.333C219.333 27.733 165.6 0 118.4 0h-.134C71.2 0 17.333 27.6 3.333 89.2-12.267 158 29.866 216.267 68 252.933c14.133 13.6 32.266 20.4 50.4 20.4 18.133 0 36.266-6.8 50.266-20.4 38.134-36.666 80.267-94.8 64.667-163.6zm-114.933 66.8c-23.2 0-42-18.8-42-42s18.8-42 42-42 42 18.8 42 42-18.8 42-42 42z"/></symbol><symbol viewBox="0 0 24 24" id="search" xmlns="http://www.w3.org/2000/svg"><path d="M11.5 21.75c-5.65 0-10.25-4.6-10.25-10.25S5.85 1.25 11.5 1.25s10.25 4.6 10.25 10.25-4.6 10.25-10.25 10.25zm0-19c-4.83 0-8.75 3.93-8.75 8.75s3.92 8.75 8.75 8.75 8.75-3.93 8.75-8.75-3.92-8.75-8.75-8.75zm10.5 20c-.19 0-.38-.07-.53-.22l-2-2a.754.754 0 010-1.06c.29-.29.77-.29 1.06 0l2 2c.29.29.29.77 0 1.06-.15.15-.34.22-.53.22z"/></symbol><symbol viewBox="0 0 17 17" id="star-small" xmlns="http://www.w3.org/2000/svg"><path d="M7.743 1.019c.29-.692 1.283-.692 1.574 0L11.035 5.1c.123.291.4.49.72.516l4.46.353c.756.06 1.062.991.486 1.479l-3.398 2.876a.836.836 0 00-.275.835l1.038 4.3c.176.729-.626 1.304-1.273.914L8.974 14.07a.861.861 0 00-.889 0l-3.819 2.304c-.647.39-1.449-.185-1.273-.914l1.038-4.3a.836.836 0 00-.274-.835L.358 7.449c-.576-.488-.27-1.42.487-1.48l4.46-.352a.852.852 0 00.72-.516l1.718-4.082z"/></symbol><symbol fill="none" viewBox="0 0 268 24" id="underline" xmlns="http://www.w3.org/2000/svg"><path clip-rule="evenodd" d="M267.463 7.633c-1.092-2.83-10.474-4.02-38.668-5.013-26.307-.943-56.933-3.673-110.442-2.184-40.9 1.141-91.828 5.708-91.828 8.24 0 1.836 1.985 1.886 20.947.248 17.521-1.49 26.506-1.837 37.475-2.234-43.978 3.872-53.36 6.403-76.788 8.835-14.693 1.54-6.105 5.957-.745 5.51.05 0 68.4-5.56 74.853-5.261.596.05-5.907.943-14.494 1.985-23.975 2.978-19.358 7.942-1.39 5.659 60.458-7.694 117.342-10.077 161.171-6.751 13.849 1.042 15.388 1.042 15.388-.248 0-2.284-3.773-4.02-9.679-4.368-9.233-.596-44.773-2.284-60.855-2.78-1.241-.05-.646-.993.446-1.092 6.553-.645 58.572-.149 79.023.546 15.04.496 16.132.447 15.586-1.092z"/></symbol></svg>